<?xml version="1.0" standalone="no"?><svg xmlns="http://www.w3.org/2000/svg" viewBox="0 0 1440 320"><path fill="#0099ff" fill-opacity="1" d="M0,64L34.3,101.3C68.6,139,137,213,206,240C274.3,267,343,245,411,218.7C480,192,549,160,617,160C685.7,160,754,192,823,224C891.4,256,960,288,1029,298.7C1097.1,309,1166,299,1234,245.3C1302.9,192,1371,96,1406,48L1440,0L1440,0L1405.7,0C1371.4,0,1303,0,1234,0C1165.7,0,1097,0,1029,0C960,0,891,0,823,0C754.3,0,686,0,617,0C548.6,0,480,0,411,0C342.9,0,274,0,206,0C137.1,0,69,0,34,0L0,0Z"></path></svg>