<?xml version="1.0" standalone="no"?><svg xmlns="http://www.w3.org/2000/svg" viewBox="0 0 1440 320"><path fill="#0099ff" fill-opacity="1" d="M0,192L30,202.7C60,213,120,235,180,234.7C240,235,300,213,360,192C420,171,480,149,540,144C600,139,660,149,720,149.3C780,149,840,139,900,144C960,149,1020,171,1080,170.7C1140,171,1200,149,1260,144C1320,139,1380,149,1410,154.7L1440,160L1440,0L1410,0C1380,0,1320,0,1260,0C1200,0,1140,0,1080,0C1020,0,960,0,900,0C840,0,780,0,720,0C660,0,600,0,540,0C480,0,420,0,360,0C300,0,240,0,180,0C120,0,60,0,30,0L0,0Z"></path></svg>